<svg xmlns="http://www.w3.org/2000/svg" width="638" height="637" overflow="hidden"><defs><clipPath id="a"><path d="M-3014 18h638v637h-638z"/></clipPath></defs><g fill-rule="evenodd" clip-path="url(#a)" transform="translate(3014 -18)"><path fill="#1D2088" d="M-2377 337.337C-2377 161.231-2519.98 19-2695.5 19c-176.08 0-318.5 142.231-318.5 318.337C-3014 512.769-2871.7 655-2695.5 655c175.52 0 318.5-142.231 318.5-317.663Z"/><path fill="#FFF" d="M-2695.66 625C-2854.58 625-2984 495.916-2984 337.336-2984 178.308-2854.69 49-2695.66 49-2537.08 49-2408 178.308-2408 337.336-2408 495.916-2537.08 625-2695.66 625Zm0-533.271c-135.37 0-245.61 110.131-245.61 245.607 0 135.029 110.13 244.935 245.61 244.935 135.02 0 244.93-109.906 244.93-244.935 0-135.364-109.91-245.607-244.93-245.607Z"/><path fill="#E4007F" d="M-2674 143s-1 0-2 1l2-1Z"/><path fill="#FFF" d="M-2566.93 397.854c1.9 6.51 2.58 12.346 2.58 18.855 0 32.547-26.01 59.145-59.09 59.145-32.51 0-58.41-26.711-58.41-59.145 0-12.345 1.35-25.364 3.25-37.71 14.92 6.51 31.84 11.111 50.68 11.111 70.74 0 127.92-57.911 127.92-128.055 0-70.817-57.18-128.055-127.92-128.055-15.58 0-31.17 2.582-46.08 8.417l-1.34.674c.67-.674 1.34-.674 1.34-.674l-9.75 3.255c16.25 13.692 29.82 29.853 38.9 49.381 5.83-1.346 10.99-1.907 16.93-1.907 37.67 0 68.84 30.527 68.84 68.909 0 37.71-31.17 68.91-68.84 68.91-13.01 0-24.67-4.602-36.32-10.437 5.15-21.437 9.08-43.546 9.08-66.329 0-64.981-52.58-117.617-118.17-117.617-64.91 0-117.49 52.636-117.49 117.617 0 16.274 3.25 31.874 9.08 46.8 13.67-16.273 31.16-28.619 50.67-37.709-.67-2.581-.67-5.836-.67-9.091 0-32.547 26.01-59.146 58.41-59.146 32.4 0 59.08 26.711 59.08 59.146 0 10.999-1.34 22.11-3.25 33.108-15.58-7.856-32.51-14.253-52.58-14.253-70.18 0-127.92 57.799-127.92 128.055 0 70.818 57.74 128.055 127.92 128.055 17.49 0 33.75-3.255 49.33-9.764-14.91-13.58-26.68-31.201-34.42-50.729-4.59.674-9.75 1.347-14.91 1.347-37.67 0-68.84-30.526-68.84-68.909 0-37.71 31.17-68.91 68.84-68.91 12.33 0 24.67 6.51 38.34 14.927-5.15 22.109-9.08 44.892-9.08 69.583 0 65.655 52.58 118.291 117.5 118.291 65.58 0 118.16-52.636 118.16-118.291 0-18.855-4.59-37.71-13.67-54.657-13.01 15.04-29.94 27.385-48.1 35.802Z"/></g></svg>